<svg width="1200" height="720" viewBox="0 0 1200 720" fill="none" xmlns="http://www.w3.org/2000/svg">
  <rect width="1200" height="720" fill="#F8FAFC"/>
  <rect x="40" y="40" width="1120" height="280" rx="24" fill="#FFFFFF" stroke="#CBD5E1" stroke-width="2"/>
  <rect x="40" y="360" width="1120" height="240" rx="24" fill="#FFFFFF" stroke="#CBD5E1" stroke-width="2"/>
  <text x="72" y="88" fill="#0F172A" font-family="Arial, sans-serif" font-size="28" font-weight="700">Local Go-Backed Development</text>
  <text x="72" y="408" fill="#0F172A" font-family="Arial, sans-serif" font-size="28" font-weight="700">Single-Target Web Deployment</text>

  <rect x="80" y="130" width="200" height="120" rx="18" fill="#E0F2FE" stroke="#0284C7" stroke-width="2"/>
  <text x="180" y="176" text-anchor="middle" fill="#0C4A6E" font-family="Arial, sans-serif" font-size="24" font-weight="700">Browser</text>
  <text x="180" y="208" text-anchor="middle" fill="#0C4A6E" font-family="Arial, sans-serif" font-size="18">RTC + RTM client</text>

  <rect x="360" y="130" width="240" height="120" rx="18" fill="#DCFCE7" stroke="#16A34A" stroke-width="2"/>
  <text x="480" y="170" text-anchor="middle" fill="#14532D" font-family="Arial, sans-serif" font-size="24" font-weight="700">Next.js App</text>
  <text x="480" y="202" text-anchor="middle" fill="#14532D" font-family="Arial, sans-serif" font-size="18">/api/* route handlers</text>
  <text x="480" y="228" text-anchor="middle" fill="#14532D" font-family="Arial, sans-serif" font-size="18">:3000</text>

  <rect x="680" y="130" width="220" height="120" rx="18" fill="#FEF3C7" stroke="#D97706" stroke-width="2"/>
  <text x="790" y="176" text-anchor="middle" fill="#7C2D12" font-family="Arial, sans-serif" font-size="24" font-weight="700">Gin Backend</text>
  <text x="790" y="208" text-anchor="middle" fill="#7C2D12" font-family="Arial, sans-serif" font-size="18">Proxy target via AGENT_BACKEND_URL</text>
  <text x="790" y="234" text-anchor="middle" fill="#7C2D12" font-family="Arial, sans-serif" font-size="18">:8000</text>

  <rect x="980" y="130" width="140" height="120" rx="18" fill="#FCE7F3" stroke="#DB2777" stroke-width="2"/>
  <text x="1050" y="176" text-anchor="middle" fill="#831843" font-family="Arial, sans-serif" font-size="24" font-weight="700">Agora</text>
  <text x="1050" y="208" text-anchor="middle" fill="#831843" font-family="Arial, sans-serif" font-size="18">Cloud</text>

  <rect x="80" y="450" width="200" height="100" rx="18" fill="#E0F2FE" stroke="#0284C7" stroke-width="2"/>
  <text x="180" y="490" text-anchor="middle" fill="#0C4A6E" font-family="Arial, sans-serif" font-size="24" font-weight="700">Browser</text>
  <text x="180" y="520" text-anchor="middle" fill="#0C4A6E" font-family="Arial, sans-serif" font-size="18">RTC + RTM client</text>

  <rect x="420" y="450" width="300" height="100" rx="18" fill="#DCFCE7" stroke="#16A34A" stroke-width="2"/>
  <text x="570" y="490" text-anchor="middle" fill="#14532D" font-family="Arial, sans-serif" font-size="24" font-weight="700">Next.js App</text>
  <text x="570" y="520" text-anchor="middle" fill="#14532D" font-family="Arial, sans-serif" font-size="18">UI + in-process token/agent routes</text>

  <rect x="860" y="450" width="200" height="100" rx="18" fill="#FCE7F3" stroke="#DB2777" stroke-width="2"/>
  <text x="960" y="490" text-anchor="middle" fill="#831843" font-family="Arial, sans-serif" font-size="24" font-weight="700">Agora Cloud</text>
  <text x="960" y="520" text-anchor="middle" fill="#831843" font-family="Arial, sans-serif" font-size="18">RTC, RTM, agent runtime</text>

  <path d="M280 190H360" stroke="#475569" stroke-width="4" stroke-linecap="round"/>
  <path d="M600 190H680" stroke="#475569" stroke-width="4" stroke-linecap="round"/>
  <path d="M900 190H980" stroke="#475569" stroke-width="4" stroke-linecap="round"/>
  <path d="M280 500H420" stroke="#475569" stroke-width="4" stroke-linecap="round"/>
  <path d="M720 500H860" stroke="#475569" stroke-width="4" stroke-linecap="round"/>

  <path d="M348 182L360 190L348 198" stroke="#475569" stroke-width="4" stroke-linecap="round" stroke-linejoin="round"/>
  <path d="M668 182L680 190L668 198" stroke="#475569" stroke-width="4" stroke-linecap="round" stroke-linejoin="round"/>
  <path d="M968 182L980 190L968 198" stroke="#475569" stroke-width="4" stroke-linecap="round" stroke-linejoin="round"/>
  <path d="M408 492L420 500L408 508" stroke="#475569" stroke-width="4" stroke-linecap="round" stroke-linejoin="round"/>
  <path d="M848 492L860 500L848 508" stroke="#475569" stroke-width="4" stroke-linecap="round" stroke-linejoin="round"/>

  <text x="640" y="666" text-anchor="middle" fill="#475569" font-family="Arial, sans-serif" font-size="20">Local mode keeps the browser-facing /api contract in Next.js and forwards backend work to Gin.</text>
</svg>
